<?xml version="1.0" encoding="UTF-8" standalone="no"?>
<!-- Created with Inkscape (http://www.inkscape.org/) -->

<svg
   width="1024"
   height="1024"
   viewBox="0 0 270.93334 270.93334"
   version="1.1"
   id="svg1"
   sodipodi:docname="logo.svg"
   xml:space="preserve"
   inkscape:version="1.3 (0e150ed6c4, 2023-07-21)"
   inkscape:export-filename="logo.png"
   inkscape:export-xdpi="18"
   inkscape:export-ydpi="18"
   xmlns:inkscape="http://www.inkscape.org/namespaces/inkscape"
   xmlns:sodipodi="http://sodipodi.sourceforge.net/DTD/sodipodi-0.dtd"
   xmlns:xlink="http://www.w3.org/1999/xlink"
   xmlns="http://www.w3.org/2000/svg"
   xmlns:svg="http://www.w3.org/2000/svg"><sodipodi:namedview
     id="namedview1"
     pagecolor="#ffffff"
     bordercolor="#000000"
     borderopacity="0.25"
     inkscape:showpageshadow="2"
     inkscape:pageopacity="0.0"
     inkscape:pagecheckerboard="false"
     inkscape:deskcolor="#d1d1d1"
     inkscape:document-units="mm"
     inkscape:zoom="1.0042718"
     inkscape:cx="374.40063"
     inkscape:cy="487.91571"
     inkscape:window-width="2560"
     inkscape:window-height="1370"
     inkscape:window-x="0"
     inkscape:window-y="240"
     inkscape:window-maximized="1"
     inkscape:current-layer="layer1"
     showguides="false"
     inkscape:export-bgcolor="#ffffffff" /><defs
     id="defs1"><linearGradient
       id="swatch5"><stop
         style="stop-color:#1e16de;stop-opacity:1;"
         offset="0"
         id="stop5" /></linearGradient></defs><g
     inkscape:label="Layer 1"
     inkscape:groupmode="layer"
     id="layer1"><g
       id="g2"
       transform="matrix(0.16559352,-0.08756998,0.08756998,0.16559352,132.78628,129.65776)"><g
         transform="matrix(0.18862886,0,0,0.18862886,8.0281857,5.5745775)"
         id="g7"><g
           fill="#ffffff"
           id="g4"><path
             d="m 105,673 v 33 q 407,354 814,0 v -33 z"
             id="path1-3" /><path
             fill="#478cbf"
             d="m 105,673 152,14 q 12,1 15,14 l 4,67 132,10 8,-61 q 2,-11 15,-15 h 162 q 13,4 15,15 l 8,61 132,-10 4,-67 q 3,-13 15,-14 L 919,673 V 427 q 30,-39 56,-81 -35,-59 -83,-108 -43,20 -82,47 -40,-37 -88,-64 7,-51 8,-102 -59,-28 -123,-42 -26,43 -46,89 -49,-7 -98,0 -20,-46 -46,-89 -64,14 -123,42 1,51 8,102 -48,27 -88,64 -39,-27 -82,-47 -48,49 -83,108 26,42 56,81 z m 0,33 v 39 c 0,276 813,276 813,0 v -39 l -134,12 -5,69 q -2,10 -14,13 l -162,11 q -12,0 -16,-11 L 577,735 H 447 l -10,65 q -4,11 -16,11 L 259,800 q -12,-3 -14,-13 l -5,-69 z"
             id="path2" /><path
             d="m 483,600 c 3,34 55,34 58,0 v -86 c -3,-34 -55,-34 -58,0 z"
             id="path3" /><circle
             cx="725"
             cy="526"
             r="90"
             id="circle3" /><circle
             cx="299"
             cy="526"
             r="90"
             id="circle4" /></g><g
           fill="#414042"
           id="g6"><circle
             cx="307"
             cy="532"
             r="60"
             id="circle5" /><circle
             cx="717"
             cy="532"
             r="60"
             id="circle6" /></g></g></g><g
       id="g5"
       transform="matrix(0.82059302,0,0,0.82059302,29.052616,28.743286)"
       style="fill:#ffffff;fill-opacity:1;stroke:#414042;stroke-width:2.11393;stroke-dasharray:none;stroke-opacity:1"><g
         id="g3"
         transform="matrix(1.2698978,0,0,1.2698978,-47.278706,28.563088)"
         style="fill:#ffffff;fill-opacity:1;stroke:#414042;stroke-width:1.66465;stroke-dasharray:none;stroke-opacity:1"><path
           id="path1"
           style="fill:#ffffff;fill-opacity:1;stroke:#414042;stroke-width:1.66465;stroke-linejoin:round;stroke-miterlimit:0;stroke-dasharray:none;stroke-opacity:1"
           d="m 59.24569,133.69041 c -4.73071,-2.11379 -6.85212,-7.66237 -4.73827,-12.39305 2.11378,-4.73071 7.66237,-6.85212 12.39305,-4.73827 l 52.84613,27.79581 m 0,0 c 2.8563,1.27632 4.13716,4.62644 2.86091,7.48278 -1.27632,2.85631 -4.62646,4.13717 -7.48279,2.86092 L 59.24569,133.69041"
           sodipodi:nodetypes="cccccc" /><use
           x="0"
           y="0"
           xlink:href="#path1"
           id="use2"
           transform="matrix(-0.85333527,-0.52136256,-0.52136256,0.85333527,344.22999,51.904117)"
           inkscape:transform-center-x="23.000164"
           inkscape:transform-center-y="-2.0454045"
           style="fill:#ffffff;fill-opacity:1;stroke:#414042;stroke-width:1.66465;stroke-dasharray:none;stroke-opacity:1" /></g></g><text
       xml:space="preserve"
       style="font-style:normal;font-variant:normal;font-weight:normal;font-stretch:normal;font-size:50.8px;font-family:'URW Gothic';-inkscape-font-specification:'URW Gothic';white-space:pre;inline-size:83.0849;display:inline;fill:#414042;fill-opacity:1;stroke:none;stroke-width:1.45627;stroke-linejoin:round;stroke-miterlimit:0;stroke-dasharray:none;stroke-opacity:1"
       x="14.96889"
       y="98.311165"
       id="text5"
       transform="rotate(-12.129827,-75.112988,29.575511)"><tspan
         x="14.96889"
         y="98.311165"
         id="tspan3"><tspan
           style="font-size:25.4px;font-family:bookman;-inkscape-font-specification:bookman"
           id="tspan1">Godot</tspan><tspan
           style="font-size:25.4px"
           id="tspan2"> &#10;</tspan></tspan></text><text
       xml:space="preserve"
       style="font-size:25.4px;fill:#414042;fill-opacity:1;stroke:none;stroke-width:1.45627;stroke-linejoin:round;stroke-miterlimit:0;stroke-dasharray:none;stroke-opacity:1"
       x="166.44766"
       y="34.840183"
       id="text7"
       transform="rotate(13.396793)"><tspan
         sodipodi:role="line"
         id="tspan7"
         style="font-style:normal;font-variant:normal;font-weight:normal;font-stretch:normal;font-family:'URW Bookman';-inkscape-font-specification:'URW Bookman';fill:#414042;fill-opacity:1;stroke:none;stroke-width:1.45627;stroke-opacity:1"
         x="166.44766"
         y="34.840183">Pinball</tspan></text><text
       xml:space="preserve"
       style="font-size:25.4px;fill:#414042;fill-opacity:1;stroke:none;stroke-width:1.45627;stroke-linejoin:round;stroke-miterlimit:0;stroke-dasharray:none;stroke-opacity:1"
       x="54.072952"
       y="111.70861"
       id="text8"
       transform="rotate(-2.2952709)"><tspan
         sodipodi:role="line"
         id="tspan8"
         style="font-style:normal;font-variant:normal;font-weight:normal;font-stretch:normal;font-family:bookman;-inkscape-font-specification:bookman;fill:#414042;fill-opacity:1;stroke-width:1.45627"
         x="54.072952"
         y="111.70861">Toolkit</tspan><tspan
         sodipodi:role="line"
         style="fill:#414042;fill-opacity:1;stroke-width:1.45627"
         x="54.072952"
         y="145.18265"
         id="tspan9" /></text></g></svg>
